<svg width="151" height="45" viewBox="0 0 151 45" fill="none" xmlns="http://www.w3.org/2000/svg">
<rect width="45" height="45" fill="#EB0029"/>
<path d="M16.228 8.576V10.22H12.796V11.996H15.364V13.592H12.796V17H10.744V8.576H16.228Z" fill="#F2F2F2"/>
<path d="M29.728 17.084C28.936 17.084 28.208 16.9 27.544 16.532C26.888 16.164 26.364 15.652 25.972 14.996C25.588 14.332 25.396 13.588 25.396 12.764C25.396 11.94 25.588 11.2 25.972 10.544C26.364 9.888 26.888 9.376 27.544 9.008C28.208 8.64 28.936 8.456 29.728 8.456C30.52 8.456 31.244 8.64 31.9 9.008C32.564 9.376 33.084 9.888 33.46 10.544C33.844 11.2 34.036 11.94 34.036 12.764C34.036 13.588 33.844 14.332 33.46 14.996C33.076 15.652 32.556 16.164 31.9 16.532C31.244 16.9 30.52 17.084 29.728 17.084ZM29.728 15.212C30.4 15.212 30.936 14.988 31.336 14.54C31.744 14.092 31.948 13.5 31.948 12.764C31.948 12.02 31.744 11.428 31.336 10.988C30.936 10.54 30.4 10.316 29.728 10.316C29.048 10.316 28.504 10.536 28.096 10.976C27.696 11.416 27.496 12.012 27.496 12.764C27.496 13.508 27.696 14.104 28.096 14.552C28.504 14.992 29.048 15.212 29.728 15.212Z" fill="#F2F2F2"/>
<path d="M13.9 26.576C14.788 26.576 15.564 26.752 16.228 27.104C16.892 27.456 17.404 27.952 17.764 28.592C18.132 29.224 18.316 29.956 18.316 30.788C18.316 31.612 18.132 32.344 17.764 32.984C17.404 33.624 16.888 34.12 16.216 34.472C15.552 34.824 14.78 35 13.9 35H10.744V26.576H13.9ZM13.768 33.224C14.544 33.224 15.148 33.012 15.58 32.588C16.012 32.164 16.228 31.564 16.228 30.788C16.228 30.012 16.012 29.408 15.58 28.976C15.148 28.544 14.544 28.328 13.768 28.328H12.796V33.224H13.768Z" fill="#F2F2F2"/>
<path d="M28.728 35.084C27.936 35.084 27.208 34.9 26.544 34.532C25.888 34.164 25.364 33.652 24.972 32.996C24.588 32.332 24.396 31.588 24.396 30.764C24.396 29.94 24.588 29.2 24.972 28.544C25.364 27.888 25.888 27.376 26.544 27.008C27.208 26.64 27.936 26.456 28.728 26.456C29.52 26.456 30.244 26.64 30.9 27.008C31.564 27.376 32.084 27.888 32.46 28.544C32.844 29.2 33.036 29.94 33.036 30.764C33.036 31.588 32.844 32.332 32.46 32.996C32.076 33.652 31.556 34.164 30.9 34.532C30.244 34.9 29.52 35.084 28.728 35.084ZM28.728 33.212C29.4 33.212 29.936 32.988 30.336 32.54C30.744 32.092 30.948 31.5 30.948 30.764C30.948 30.02 30.744 29.428 30.336 28.988C29.936 28.54 29.4 28.316 28.728 28.316C28.048 28.316 27.504 28.536 27.096 28.976C26.696 29.416 26.496 30.012 26.496 30.764C26.496 31.508 26.696 32.104 27.096 32.552C27.504 32.992 28.048 33.212 28.728 33.212Z" fill="#F2F2F2"/>
<path d="M66.376 31C66.2 31 66.056 30.944 65.944 30.832C65.832 30.72 65.776 30.576 65.776 30.4V14.8C65.776 14.624 65.832 14.48 65.944 14.368C66.056 14.256 66.2 14.2 66.376 14.2H77.08C77.256 14.2 77.4 14.256 77.512 14.368C77.624 14.48 77.68 14.624 77.68 14.8V16.84C77.68 17.016 77.624 17.16 77.512 17.272C77.4 17.384 77.256 17.44 77.08 17.44H69.52V21.496H76.6C76.776 21.496 76.92 21.552 77.032 21.664C77.144 21.776 77.2 21.92 77.2 22.096V24.136C77.2 24.296 77.144 24.432 77.032 24.544C76.92 24.656 76.776 24.712 76.6 24.712H69.52V30.4C69.52 30.576 69.464 30.72 69.352 30.832C69.24 30.944 69.096 31 68.92 31H66.376ZM85.6146 31.24C84.2866 31.24 83.1746 31.024 82.2786 30.592C81.3826 30.144 80.6946 29.512 80.2146 28.696C79.7506 27.88 79.4946 26.928 79.4466 25.84C79.4306 25.52 79.4226 25.16 79.4226 24.76C79.4226 24.344 79.4306 23.984 79.4466 23.68C79.4946 22.576 79.7666 21.624 80.2626 20.824C80.7586 20.008 81.4546 19.384 82.3506 18.952C83.2466 18.504 84.3346 18.28 85.6146 18.28C86.8786 18.28 87.9586 18.504 88.8546 18.952C89.7506 19.384 90.4466 20.008 90.9426 20.824C91.4386 21.624 91.7106 22.576 91.7586 23.68C91.7906 23.984 91.8066 24.344 91.8066 24.76C91.8066 25.16 91.7906 25.52 91.7586 25.84C91.7106 26.928 91.4466 27.88 90.9666 28.696C90.5026 29.512 89.8226 30.144 88.9266 30.592C88.0306 31.024 86.9266 31.24 85.6146 31.24ZM85.6146 28.6C86.3986 28.6 86.9906 28.36 87.3906 27.88C87.7906 27.384 88.0066 26.664 88.0386 25.72C88.0546 25.48 88.0626 25.16 88.0626 24.76C88.0626 24.36 88.0546 24.04 88.0386 23.8C88.0066 22.872 87.7906 22.16 87.3906 21.664C86.9906 21.168 86.3986 20.92 85.6146 20.92C84.8306 20.92 84.2306 21.168 83.8146 21.664C83.4146 22.16 83.1986 22.872 83.1666 23.8C83.1506 24.04 83.1426 24.36 83.1426 24.76C83.1426 25.16 83.1506 25.48 83.1666 25.72C83.1986 26.664 83.4146 27.384 83.8146 27.88C84.2306 28.36 84.8306 28.6 85.6146 28.6ZM100.029 31.24C98.7007 31.24 97.5887 31.024 96.6927 30.592C95.7967 30.144 95.1087 29.512 94.6287 28.696C94.1647 27.88 93.9087 26.928 93.8607 25.84C93.8447 25.52 93.8367 25.16 93.8367 24.76C93.8367 24.344 93.8447 23.984 93.8607 23.68C93.9087 22.576 94.1807 21.624 94.6767 20.824C95.1727 20.008 95.8687 19.384 96.7647 18.952C97.6607 18.504 98.7487 18.28 100.029 18.28C101.293 18.28 102.373 18.504 103.269 18.952C104.165 19.384 104.861 20.008 105.357 20.824C105.853 21.624 106.125 22.576 106.173 23.68C106.205 23.984 106.221 24.344 106.221 24.76C106.221 25.16 106.205 25.52 106.173 25.84C106.125 26.928 105.861 27.88 105.381 28.696C104.917 29.512 104.237 30.144 103.341 30.592C102.445 31.024 101.341 31.24 100.029 31.24ZM100.029 28.6C100.813 28.6 101.405 28.36 101.805 27.88C102.205 27.384 102.421 26.664 102.453 25.72C102.469 25.48 102.477 25.16 102.477 24.76C102.477 24.36 102.469 24.04 102.453 23.8C102.421 22.872 102.205 22.16 101.805 21.664C101.405 21.168 100.813 20.92 100.029 20.92C99.2447 20.92 98.6447 21.168 98.2287 21.664C97.8287 22.16 97.6127 22.872 97.5807 23.8C97.5647 24.04 97.5567 24.36 97.5567 24.76C97.5567 25.16 97.5647 25.48 97.5807 25.72C97.6127 26.664 97.8287 27.384 98.2287 27.88C98.6447 28.36 99.2447 28.6 100.029 28.6ZM113.363 31.24C112.563 31.24 111.851 31.112 111.227 30.856C110.603 30.584 110.075 30.2 109.643 29.704C109.211 29.192 108.883 28.592 108.659 27.904C108.435 27.2 108.299 26.424 108.251 25.576C108.235 25.272 108.227 25 108.227 24.76C108.227 24.504 108.235 24.232 108.251 23.944C108.283 23.112 108.411 22.352 108.635 21.664C108.875 20.976 109.203 20.384 109.619 19.888C110.051 19.376 110.579 18.984 111.203 18.712C111.843 18.424 112.563 18.28 113.363 18.28C114.195 18.28 114.907 18.424 115.499 18.712C116.091 18.984 116.579 19.344 116.963 19.792V14.56C116.963 14.384 117.019 14.24 117.131 14.128C117.243 14.016 117.387 13.96 117.563 13.96H120.035C120.195 13.96 120.331 14.016 120.443 14.128C120.555 14.24 120.611 14.384 120.611 14.56V30.4C120.611 30.576 120.555 30.72 120.443 30.832C120.331 30.944 120.195 31 120.035 31H117.731C117.571 31 117.435 30.944 117.323 30.832C117.211 30.72 117.155 30.576 117.155 30.4V29.584C116.755 30.064 116.251 30.464 115.643 30.784C115.035 31.088 114.275 31.24 113.363 31.24ZM114.467 28.36C115.059 28.36 115.531 28.224 115.883 27.952C116.251 27.68 116.515 27.336 116.675 26.92C116.851 26.504 116.947 26.056 116.963 25.576C116.995 25.272 117.011 24.968 117.011 24.664C117.011 24.36 116.995 24.064 116.963 23.776C116.947 23.328 116.851 22.912 116.675 22.528C116.499 22.128 116.227 21.8 115.859 21.544C115.507 21.288 115.043 21.16 114.467 21.16C113.859 21.16 113.379 21.296 113.027 21.568C112.675 21.824 112.419 22.168 112.259 22.6C112.115 23.032 112.027 23.504 111.995 24.016C111.947 24.512 111.947 25.008 111.995 25.504C112.027 26.016 112.115 26.488 112.259 26.92C112.419 27.352 112.675 27.704 113.027 27.976C113.379 28.232 113.859 28.36 114.467 28.36ZM129.228 31.24C127.388 31.24 125.924 30.728 124.836 29.704C123.764 28.68 123.196 27.192 123.132 25.24C123.132 25.112 123.132 24.944 123.132 24.736C123.132 24.512 123.132 24.336 123.132 24.208C123.196 22.976 123.476 21.92 123.972 21.04C124.468 20.144 125.164 19.464 126.06 19C126.956 18.52 128.004 18.28 129.204 18.28C130.548 18.28 131.668 18.56 132.564 19.12C133.476 19.664 134.156 20.416 134.604 21.376C135.068 22.32 135.3 23.408 135.3 24.64V25.192C135.3 25.352 135.236 25.488 135.108 25.6C134.996 25.712 134.86 25.768 134.7 25.768H126.852C126.852 25.784 126.852 25.816 126.852 25.864C126.852 25.896 126.852 25.928 126.852 25.96C126.868 26.472 126.964 26.944 127.14 27.376C127.332 27.792 127.596 28.128 127.932 28.384C128.284 28.64 128.7 28.768 129.18 28.768C129.58 28.768 129.908 28.712 130.164 28.6C130.42 28.488 130.628 28.352 130.788 28.192C130.964 28.032 131.092 27.896 131.172 27.784C131.316 27.624 131.428 27.528 131.508 27.496C131.604 27.448 131.748 27.424 131.94 27.424H134.436C134.596 27.424 134.724 27.472 134.82 27.568C134.932 27.648 134.98 27.768 134.964 27.928C134.948 28.184 134.812 28.504 134.556 28.888C134.316 29.256 133.956 29.624 133.476 29.992C132.996 30.344 132.396 30.64 131.676 30.88C130.972 31.12 130.156 31.24 129.228 31.24ZM126.852 23.584H131.556V23.536C131.556 22.96 131.46 22.464 131.268 22.048C131.092 21.616 130.828 21.28 130.476 21.04C130.124 20.8 129.7 20.68 129.204 20.68C128.708 20.68 128.284 20.8 127.932 21.04C127.58 21.28 127.308 21.616 127.116 22.048C126.94 22.464 126.852 22.96 126.852 23.536V23.584ZM138.3 31C138.124 31 137.98 30.944 137.868 30.832C137.756 30.72 137.7 30.576 137.7 30.4V14.56C137.7 14.384 137.756 14.24 137.868 14.128C137.98 14.016 138.124 13.96 138.3 13.96H140.7C140.86 13.96 140.996 14.016 141.108 14.128C141.22 14.24 141.276 14.384 141.276 14.56V30.4C141.276 30.576 141.22 30.72 141.108 30.832C140.996 30.944 140.86 31 140.7 31H138.3ZM145.541 31C145.381 31 145.245 30.944 145.133 30.832C145.021 30.72 144.965 30.576 144.965 30.4V19.12C144.965 18.944 145.021 18.8 145.133 18.688C145.245 18.576 145.381 18.52 145.541 18.52H147.941C148.117 18.52 148.261 18.576 148.373 18.688C148.485 18.8 148.541 18.944 148.541 19.12V30.4C148.541 30.576 148.485 30.72 148.373 30.832C148.261 30.944 148.117 31 147.941 31H145.541ZM145.469 16.6C145.309 16.6 145.173 16.544 145.061 16.432C144.949 16.32 144.893 16.176 144.893 16V14.08C144.893 13.904 144.949 13.76 145.061 13.648C145.173 13.52 145.309 13.456 145.469 13.456H147.989C148.165 13.456 148.309 13.52 148.421 13.648C148.549 13.76 148.613 13.904 148.613 14.08V16C148.613 16.176 148.549 16.32 148.421 16.432C148.309 16.544 148.165 16.6 147.989 16.6H145.469Z" fill="black"/>
</svg>
