<svg width="81" height="149" viewBox="0 0 81 149" fill="none" xmlns="http://www.w3.org/2000/svg">
<g clip-path="url(#clip0_120_1094)">
<path d="M48.5316 21.6783C48.5319 21.6786 48.5323 21.6789 48.5326 21.6791L56.8885 27.4951C56.9846 27.562 57.0966 27.6023 57.2132 27.6122C57.3299 27.622 57.4471 27.601 57.553 27.5512L66.5102 23.3318C67.3428 22.9521 67.2726 21.747 66.4009 21.4681L40.8441 13.2916C40.6672 13.2349 40.478 13.2286 40.2977 13.2734C40.1173 13.3183 39.9531 13.4124 39.8233 13.5454C39.6935 13.6784 39.6033 13.8448 39.5629 14.0262C39.5225 14.2075 39.5333 14.3966 39.5943 14.5721L48.3871 39.9233C48.6871 40.7881 49.8944 40.8282 50.2529 39.9875L54.2533 30.9299C54.3008 30.8227 54.3193 30.7049 54.3068 30.5884C54.2943 30.4718 54.2513 30.3606 54.1821 30.266L48.1642 22.0538C48.1275 22.0029 48.11 21.9406 48.1147 21.8781C48.1193 21.8155 48.1459 21.7566 48.1898 21.7117C48.2336 21.6668 48.2918 21.6388 48.3543 21.6326C48.4165 21.6264 48.4789 21.6423 48.5306 21.6775C48.5309 21.6777 48.5313 21.678 48.5316 21.6783Z" fill="#F2C94C"/>
</g>
<path d="M13.7222 147.5C33.7222 135.833 67.3222 106.3 41.7222 81.5C9.72222 50.5 -16.7778 118.5 17.7222 124.5C52.2222 130.5 106.722 87 63.7222 37" stroke="#F2C94C" stroke-width="3" stroke-linejoin="round" stroke-dasharray="8 8"/>
<defs>
<clipPath id="clip0_120_1094">
<rect width="32" height="32" fill="white" transform="translate(49.3999 45.2515) rotate(-135.694)"/>
</clipPath>
</defs>
</svg>
