<svg width="18" height="18" viewBox="0 0 18 18" fill="none" xmlns="http://www.w3.org/2000/svg">
<path d="M9 1.6875C7.55373 1.6875 6.13993 2.11637 4.9374 2.91988C3.73486 3.72339 2.7976 4.86544 2.24413 6.20163C1.69067 7.53781 1.54586 9.00811 1.82801 10.4266C2.11017 11.8451 2.80661 13.148 3.82928 14.1707C4.85196 15.1934 6.15492 15.8898 7.5734 16.172C8.99189 16.4541 10.4622 16.3093 11.7984 15.7559C13.1346 15.2024 14.2766 14.2651 15.0801 13.0626C15.8836 11.8601 16.3125 10.4463 16.3125 9C16.3103 7.06128 15.5392 5.20259 14.1683 3.83171C12.7974 2.46082 10.9387 1.6897 9 1.6875ZM10.9688 12.375C10.9688 12.5242 10.9095 12.6673 10.804 12.7727C10.6985 12.8782 10.5554 12.9375 10.4063 12.9375C10.2571 12.9375 10.114 12.8782 10.0085 12.7727C9.90301 12.6673 9.84375 12.5242 9.84375 12.375V10.6875H7.03125C6.94129 10.6875 6.85265 10.6659 6.77275 10.6246C6.69285 10.5832 6.62404 10.5233 6.57208 10.4499C6.52012 10.3765 6.48653 10.2916 6.47413 10.2025C6.46173 10.1134 6.47088 10.0227 6.50081 9.93783L8.18817 5.15658C8.21246 5.08655 8.25036 5.02201 8.29967 4.96668C8.34898 4.91134 8.40875 4.8663 8.47553 4.83414C8.54231 4.80197 8.61478 4.78333 8.68879 4.77927C8.7628 4.77521 8.83689 4.78581 8.90678 4.81048C8.97668 4.83514 9.04101 4.87338 9.09609 4.92298C9.15116 4.97259 9.19588 5.0326 9.22769 5.09955C9.25949 5.1665 9.27776 5.23907 9.28142 5.3131C9.28509 5.38713 9.27409 5.46116 9.24905 5.53092L7.82627 9.5625H9.84375V7.875C9.84375 7.72582 9.90301 7.58274 10.0085 7.47725C10.114 7.37176 10.2571 7.3125 10.4063 7.3125C10.5554 7.3125 10.6985 7.37176 10.804 7.47725C10.9095 7.58274 10.9688 7.72582 10.9688 7.875V12.375Z" fill="#EB0029"/>
</svg>
