<svg width="84" height="12" viewBox="0 0 84 12" fill="none" xmlns="http://www.w3.org/2000/svg">
<path d="M10.9735 4.5895C10.9421 4.49693 10.8842 4.4156 10.8071 4.35553C10.73 4.29547 10.637 4.2593 10.5395 4.2515L7.68901 4.025L6.45551 1.2945C6.41623 1.20656 6.35233 1.13186 6.27154 1.07943C6.19074 1.027 6.09649 0.999071 6.00017 0.999018C5.90386 0.998965 5.80958 1.02679 5.72873 1.07913C5.64787 1.13148 5.58389 1.2061 5.54451 1.294L4.31101 4.025L1.46051 4.2515C1.36474 4.25909 1.27318 4.29411 1.19679 4.35237C1.1204 4.41063 1.06241 4.48966 1.02976 4.58002C0.99711 4.67037 0.991182 4.76822 1.01269 4.86185C1.03419 4.95549 1.08221 5.04095 1.15101 5.108L3.25751 7.1615L2.51251 10.3875C2.48989 10.4852 2.49714 10.5873 2.53332 10.6808C2.5695 10.7743 2.63294 10.8547 2.71541 10.9117C2.79788 10.9687 2.89557 10.9996 2.9958 11.0003C3.09604 11.0011 3.19419 10.9717 3.27751 10.916L6.00001 9.101L8.72251 10.916C8.80768 10.9725 8.90812 11.0017 9.01033 10.9994C9.11253 10.9972 9.2116 10.9637 9.29421 10.9035C9.37682 10.8432 9.439 10.7592 9.4724 10.6625C9.50579 10.5659 9.5088 10.4614 9.48101 10.363L8.56651 7.163L10.8345 5.122C10.983 4.988 11.0375 4.779 10.9735 4.5895Z" fill="#F2C94C"/>
<path d="M28.9735 4.5895C28.9421 4.49693 28.8842 4.4156 28.8071 4.35553C28.73 4.29547 28.637 4.2593 28.5395 4.2515L25.689 4.025L24.4555 1.2945C24.4162 1.20656 24.3523 1.13186 24.2715 1.07943C24.1907 1.027 24.0965 0.999071 24.0002 0.999018C23.9039 0.998965 23.8096 1.02679 23.7287 1.07913C23.6479 1.13148 23.5839 1.2061 23.5445 1.294L22.311 4.025L19.4605 4.2515C19.3647 4.25909 19.2732 4.29411 19.1968 4.35237C19.1204 4.41063 19.0624 4.48966 19.0298 4.58002C18.9971 4.67037 18.9912 4.76822 19.0127 4.86185C19.0342 4.95549 19.0822 5.04095 19.151 5.108L21.2575 7.1615L20.5125 10.3875C20.4899 10.4852 20.4971 10.5873 20.5333 10.6808C20.5695 10.7743 20.6329 10.8547 20.7154 10.9117C20.7979 10.9687 20.8956 10.9996 20.9958 11.0003C21.096 11.0011 21.1942 10.9717 21.2775 10.916L24 9.101L26.7225 10.916C26.8077 10.9725 26.9081 11.0017 27.0103 10.9994C27.1125 10.9972 27.2116 10.9637 27.2942 10.9035C27.3768 10.8432 27.439 10.7592 27.4724 10.6625C27.5058 10.5659 27.5088 10.4614 27.481 10.363L26.5665 7.163L28.8345 5.122C28.983 4.988 29.0375 4.779 28.9735 4.5895Z" fill="#F2C94C"/>
<path d="M46.9735 4.5895C46.9421 4.49693 46.8842 4.4156 46.8071 4.35553C46.73 4.29547 46.637 4.2593 46.5395 4.2515L43.689 4.025L42.4555 1.2945C42.4162 1.20656 42.3523 1.13186 42.2715 1.07943C42.1907 1.027 42.0965 0.999071 42.0002 0.999018C41.9039 0.998965 41.8096 1.02679 41.7287 1.07913C41.6479 1.13148 41.5839 1.2061 41.5445 1.294L40.311 4.025L37.4605 4.2515C37.3647 4.25909 37.2732 4.29411 37.1968 4.35237C37.1204 4.41063 37.0624 4.48966 37.0298 4.58002C36.9971 4.67037 36.9912 4.76822 37.0127 4.86185C37.0342 4.95549 37.0822 5.04095 37.151 5.108L39.2575 7.1615L38.5125 10.3875C38.4899 10.4852 38.4971 10.5873 38.5333 10.6808C38.5695 10.7743 38.6329 10.8547 38.7154 10.9117C38.7979 10.9687 38.8956 10.9996 38.9958 11.0003C39.096 11.0011 39.1942 10.9717 39.2775 10.916L42 9.101L44.7225 10.916C44.8077 10.9725 44.9081 11.0017 45.0103 10.9994C45.1125 10.9972 45.2116 10.9637 45.2942 10.9035C45.3768 10.8432 45.439 10.7592 45.4724 10.6625C45.5058 10.5659 45.5088 10.4614 45.481 10.363L44.5665 7.163L46.8345 5.122C46.983 4.988 47.0375 4.779 46.9735 4.5895Z" fill="#F2C94C"/>
<path d="M64.9735 4.5895C64.9421 4.49693 64.8842 4.4156 64.8071 4.35553C64.73 4.29547 64.637 4.2593 64.5395 4.2515L61.689 4.025L60.4555 1.2945C60.4162 1.20656 60.3523 1.13186 60.2715 1.07943C60.1907 1.027 60.0965 0.999071 60.0002 0.999018C59.9039 0.998965 59.8096 1.02679 59.7287 1.07913C59.6479 1.13148 59.5839 1.2061 59.5445 1.294L58.311 4.025L55.4605 4.2515C55.3647 4.25909 55.2732 4.29411 55.1968 4.35237C55.1204 4.41063 55.0624 4.48966 55.0298 4.58002C54.9971 4.67037 54.9912 4.76822 55.0127 4.86185C55.0342 4.95549 55.0822 5.04095 55.151 5.108L57.2575 7.1615L56.5125 10.3875C56.4899 10.4852 56.4971 10.5873 56.5333 10.6808C56.5695 10.7743 56.6329 10.8547 56.7154 10.9117C56.7979 10.9687 56.8956 10.9996 56.9958 11.0003C57.096 11.0011 57.1942 10.9717 57.2775 10.916L60 9.101L62.7225 10.916C62.8077 10.9725 62.9081 11.0017 63.0103 10.9994C63.1125 10.9972 63.2116 10.9637 63.2942 10.9035C63.3768 10.8432 63.439 10.7592 63.4724 10.6625C63.5058 10.5659 63.5088 10.4614 63.481 10.363L62.5665 7.163L64.8345 5.122C64.983 4.988 65.0375 4.779 64.9735 4.5895Z" fill="#F2C94C"/>
<path d="M75.258 7.1615L74.513 10.3875C74.4899 10.4852 74.4969 10.5876 74.5329 10.6812C74.5689 10.7749 74.6323 10.8556 74.7149 10.9127C74.7975 10.9697 74.8953 11.0006 74.9957 11.0012C75.0961 11.0018 75.1943 10.9721 75.2775 10.916L78 9.101L80.7225 10.916C80.8077 10.9725 80.9081 11.0017 81.0103 10.9994C81.1125 10.9972 81.2116 10.9637 81.2942 10.9035C81.3768 10.8432 81.439 10.7592 81.4724 10.6625C81.5058 10.5659 81.5088 10.4614 81.481 10.363L80.5665 7.163L82.8345 5.122C82.9072 5.05659 82.959 4.97133 82.9837 4.87675C83.0084 4.78218 83.0049 4.68244 82.9735 4.58987C82.9421 4.4973 82.8842 4.41596 82.8071 4.35591C82.73 4.29586 82.637 4.25973 82.5395 4.252L79.689 4.025L78.4555 1.2945C78.4162 1.20658 78.3522 1.13192 78.2714 1.07953C78.1906 1.02714 78.0963 0.999265 78 0.999265C77.9037 0.999265 77.8094 1.02714 77.7286 1.07953C77.6478 1.13192 77.5838 1.20658 77.5445 1.2945L76.311 4.025L73.4605 4.2515C73.3647 4.25909 73.2732 4.2941 73.1968 4.35236C73.1204 4.41062 73.0624 4.48966 73.0298 4.58001C72.9971 4.67037 72.9912 4.76822 73.0127 4.86185C73.0342 4.95548 73.0822 5.04094 73.151 5.108L75.258 7.1615ZM76.6845 4.9985C76.7738 4.99147 76.8595 4.96056 76.9327 4.90901C77.0059 4.85745 77.0638 4.78716 77.1005 4.7055L78 2.715L78.8995 4.7055C78.9362 4.78716 78.9942 4.85745 79.0674 4.90901C79.1406 4.96056 79.2263 4.99147 79.3155 4.9985L81.3015 5.156L79.666 6.628C79.524 6.756 79.4675 6.953 79.5195 7.137L80.146 9.3295L78.278 8.084C78.196 8.02897 78.0995 7.99958 78.0008 7.99958C77.902 7.99958 77.8055 8.02897 77.7235 8.084L75.7715 9.3855L76.2965 7.1125C76.3158 7.0289 76.3132 6.94175 76.289 6.85944C76.2648 6.77713 76.2199 6.70242 76.1585 6.6425L74.6395 5.1615L76.6845 4.9985Z" fill="#F2C94C"/>
</svg>
